<?xml version="1.0" encoding="UTF-8" standalone="no"?>
<!-- Created with Inkscape (http://www.inkscape.org/) -->

<svg
   width="136.16093mm"
   height="128.04628mm"
   viewBox="0 0 136.16093 128.04628"
   version="1.1"
   id="svg1"
   xml:space="preserve"
   sodipodi:docname="sun.svg"
   inkscape:version="1.3.2 (091e20e, 2023-11-25, custom)"
   xmlns:inkscape="http://www.inkscape.org/namespaces/inkscape"
   xmlns:sodipodi="http://sodipodi.sourceforge.net/DTD/sodipodi-0.dtd"
   xmlns="http://www.w3.org/2000/svg"
   xmlns:svg="http://www.w3.org/2000/svg"><sodipodi:namedview
     id="namedview1"
     pagecolor="#505050"
     bordercolor="#eeeeee"
     borderopacity="1"
     inkscape:showpageshadow="0"
     inkscape:pageopacity="0"
     inkscape:pagecheckerboard="0"
     inkscape:deskcolor="#505050"
     inkscape:document-units="mm"
     showguides="true"
     inkscape:zoom="1.1352762"
     inkscape:cx="147.98161"
     inkscape:cy="273.50172"
     inkscape:window-width="1920"
     inkscape:window-height="991"
     inkscape:window-x="-9"
     inkscape:window-y="-9"
     inkscape:window-maximized="1"
     inkscape:current-layer="layer1"><sodipodi:guide
       position="111.65574,311.14346"
       orientation="0,-1"
       id="guide1"
       inkscape:locked="false" /></sodipodi:namedview><defs
     id="defs1"><filter
       inkscape:menu-tooltip="In and out glow with a possible offset and colorizable flood"
       inkscape:menu="Shadows and Glows"
       inkscape:label="Cutout Glow"
       style="color-interpolation-filters:sRGB"
       id="filter1"
       x="-0.052878609"
       y="-0.056229664"
       width="1.12779"
       height="1.1358884"><feOffset
         dy="3"
         dx="3"
         id="feOffset1" /><feGaussianBlur
         stdDeviation="3"
         result="blur"
         id="feGaussianBlur1" /><feFlood
         flood-color="rgb(0,0,0)"
         flood-opacity="1"
         result="flood"
         id="feFlood1" /><feComposite
         in="flood"
         in2="SourceGraphic"
         operator="in"
         result="composite"
         id="feComposite1" /><feBlend
         in="blur"
         in2="composite"
         mode="normal"
         id="feBlend1" /></filter></defs><g
     inkscape:label="Capa 1"
     inkscape:groupmode="layer"
     id="layer1"
     transform="translate(-39.328805,-90.591329)"><path
       style="fill:#ff0000;fill-opacity:1;filter:url(#filter1)"
       d="m 86.319581,218.50334 c 0.034,-0.14325 0.72725,-2.78186 1.54058,-5.86356 5.06638,-19.19653 6.53636,-25.91505 6.55812,-29.97386 0.008,-1.49572 -0.0212,-1.81575 -0.2079,-2.27342 -0.57002,-1.3977 -1.77782,-1.30838 -3.92031,0.2899 -1.10931,0.82754 -3.62188,3.23577 -5.49326,5.26512 -0.79294,0.85988 -1.46255,1.54278 -1.48801,1.51757 -0.0255,-0.0252 0.46044,-0.94398 1.0798,-2.04171 1.4303,-2.535 2.83162,-5.39932 3.29183,-6.72859 0.44398,-1.28239 0.55392,-2.4998 0.27413,-3.03546 -0.84976,-1.62684 -4.63662,-0.28658 -13.02834,4.61108 -3.54156,2.06696 -9.2769,5.62097 -17.63828,10.92989 -2.47815,1.57346 -4.62276,2.93333 -4.76579,3.02193 -0.823431,0.51007 0.325,-0.47343 4.546,-3.89315 12.82136,-10.38747 17.20801,-14.13529 20.82816,-17.79494 0.99891,-1.0098 2.07526,-2.17871 2.3919,-2.59759 1.67065,-2.21007 1.65866,-3.43482 -0.0384,-3.92324 -0.53806,-0.15486 -0.94975,-0.17526 -2.51638,-0.12471 -2.03669,0.0657 -3.60154,0.27655 -7.00969,0.94441 -1.2169,0.23847 -2.23583,0.41052 -2.26429,0.38235 -0.0285,-0.0282 0.28987,-0.20414 0.70739,-0.39104 7.22085,-3.23218 10.04534,-5.0843 10.04534,-6.58712 0,-0.40379 -0.062,-0.53459 -0.42201,-0.89106 -1.87631,-1.85756 -9.67943,-2.85362 -32.491789,-4.14754 -3.203463,-0.1817 -6.09647,-0.36338 -6.428905,-0.40373 l -0.604427,-0.0734 0.439583,-0.0871 c 0.241771,-0.0479 2.714427,-0.21333 5.494791,-0.36763 23.447307,-1.30123 31.620447,-2.32236 33.568477,-4.19397 0.38498,-0.36988 0.44428,-0.49005 0.44428,-0.90025 0,-1.51673 -2.73292,-3.30871 -10.04534,-6.58673 -0.41752,-0.18717 -0.73586,-0.36335 -0.70742,-0.39151 0.0285,-0.0282 0.93877,0.12231 2.02294,0.33439 3.53959,0.6924 5.27002,0.92932 7.25107,0.99278 1.56579,0.0502 1.97861,0.0296 2.51638,-0.12515 3.23783,-0.93186 0.5365,-4.55308 -10.15898,-13.61848 -2.95801,-2.50718 -6.13965,-5.12387 -12.19844,-10.03239 -3.05236,-2.47287 -5.56852,-4.54825 -5.59147,-4.61197 -0.0534,-0.14814 -0.565038,-0.46356 5.48157,3.37914 20.98512,13.33632 27.30987,16.69949 29.61316,15.74672 0.84214,-0.34835 0.94585,-1.63041 0.28672,-3.5445 -0.45235,-1.31362 -1.84788,-4.16404 -3.29423,-6.72859 -0.6191,-1.09773 -1.1051,-2.01619 -1.08001,-2.04103 0.0251,-0.0248 0.72041,0.68295 1.54515,1.57287 2.01376,2.17289 4.20767,4.26727 5.40735,5.16202 2.20204,1.64234 3.37655,1.74256 3.94977,0.33702 0.18666,-0.45767 0.21592,-0.7777 0.2079,-2.27342 -0.0219,-4.0819 -1.44409,-10.57962 -6.56994,-30.016403 -0.80654,-3.0583 -1.49435,-5.67777 -1.52849,-5.82103 -0.20302,-0.85206 0.42364,0.6403 2.71729,6.47119 6.65323,16.913713 9.52187,23.444043 11.797479,26.856393 0.59112,0.8864 1.59523,1.97349 2.02716,2.19468 0.45959,0.23536 1.0607,0.19006 1.4579,-0.10987 1.14251,-0.86274 2.08995,-4.51967 2.81433,-10.86276 0.0735,-0.64327 0.16904,-1.16958 0.2124,-1.16958 0.0434,0 0.13714,0.52631 0.2084,1.16958 0.52782,4.7649 1.23174,8.12451 2.05128,9.79021 0.4564,0.92764 0.91948,1.33439 1.51916,1.33439 0.56689,0 0.92481,-0.2118 1.62722,-0.9629 2.41043,-2.57754 5.29351,-8.88947 12.89747,-28.236413 2.28393,-5.81107 2.92838,-7.34451 2.72119,-6.47492 -0.0341,0.14326 -0.72815,2.78187 -1.54225,5.86357 -5.04591,19.100803 -6.53437,25.905823 -6.55618,29.973863 -0.008,1.49572 0.0212,1.81575 0.2079,2.27342 0.57322,1.40554 1.74773,1.30532 3.94977,-0.33702 1.20676,-0.90004 3.41695,-3.01169 5.40938,-5.1682 0.82124,-0.88888 1.51519,-1.59434 1.54211,-1.56768 0.0269,0.0267 -0.45185,0.93223 -1.06394,2.0124 -1.44584,2.55149 -2.87021,5.45759 -3.31243,6.75821 -0.43743,1.2865 -0.54554,2.50617 -0.26907,3.03546 0.34786,0.66597 1.26615,0.82676 2.65061,0.46411 3.64946,-0.95594 10.21004,-4.69907 27.52147,-15.70235 6.02454,-3.82924 5.53529,-3.52769 5.48158,-3.37858 -0.0229,0.0637 -2.53928,2.13906 -5.59183,4.61186 -11.48971,9.30755 -16.25796,13.36635 -19.67267,16.74565 -2.76438,2.73572 -3.94678,4.40345 -3.95216,5.57441 -0.003,0.68417 0.36558,1.07127 1.26777,1.33092 0.53777,0.15478 0.95059,0.17531 2.51638,0.12515 1.98105,-0.0635 3.71148,-0.30038 7.25106,-0.99278 1.08418,-0.21208 1.9945,-0.36255 2.02295,-0.33439 0.0284,0.0282 -0.2899,0.20434 -0.70742,0.39151 -7.3122,3.27792 -10.04534,5.07001 -10.04534,6.58661 0,2.48341 7.6724,3.63256 34.01276,5.09434 2.78036,0.1543 5.25302,0.31973 5.49479,0.36763 l 0.43958,0.0871 -0.60443,0.0734 c -0.33243,0.0403 -3.22544,0.22203 -6.4289,0.40373 -20.55696,1.16599 -28.51769,2.05801 -31.56595,3.53705 -0.95658,0.46414 -1.34785,0.9109 -1.34785,1.53902 0,1.46617 2.85213,3.32567 10.04534,6.54925 0.41752,0.18712 0.73585,0.36326 0.70739,0.39144 -0.0285,0.0282 -1.04739,-0.14388 -2.26429,-0.38235 -3.40815,-0.66786 -4.973,-0.87869 -7.00969,-0.94441 -1.56663,-0.0505 -1.97832,-0.0301 -2.51638,0.12471 -2.5213,0.72564 -1.37447,3.09933 3.8973,8.06656 3.63549,3.42547 8.27673,7.33907 19.0096,16.0293 2.75014,2.22675 5.01758,4.09699 5.03874,4.15608 0.0477,0.13315 -0.63361,-0.28082 -4.04968,-2.46065 -13.70771,-8.74703 -20.406,-12.77705 -24.78151,-14.90977 -4.18407,-2.03941 -6.20941,-2.40297 -6.82466,-1.22509 -0.27319,0.52302 -0.16027,1.75336 0.27765,3.02505 0.45235,1.31361 1.84788,4.16404 3.29423,6.72859 0.6191,1.09773 1.10479,2.0165 1.07932,2.04171 -0.0255,0.0252 -0.69507,-0.65769 -1.48801,-1.51757 -3.55478,-3.85486 -6.26401,-6.13248 -7.72294,-6.49258 -0.64194,-0.15844 -1.20705,0.0485 -1.51899,0.55635 -1.12284,1.82792 -0.0846,8.37358 3.61524,22.79175 0.9389,3.6589 3.29984,12.6521 3.73916,14.24306 0.33097,1.19859 0.43459,1.72568 0.31623,1.60849 -0.0579,-0.0573 -1.20944,-2.91508 -2.55904,-6.35063 -6.43121,-16.37132 -9.36745,-23.11014 -11.64976,-26.73673 -0.68308,-1.08543 -1.77722,-2.32629 -2.27669,-2.582 -0.46729,-0.23923 -1.06648,-0.19601 -1.46608,0.10573 -1.14802,0.86689 -2.12782,4.64582 -2.81649,10.86276 -0.0713,0.64327 -0.16545,1.16958 -0.20932,1.16958 -0.0439,0 -0.13806,-0.52631 -0.20932,-1.16958 -0.68088,-6.14658 -1.67593,-10.0015 -2.80092,-10.85099 -0.41538,-0.31367 -1.00685,-0.36057 -1.48166,-0.1175 -0.49872,0.25533 -1.59296,1.49568 -2.27784,2.582 -2.275469,3.60923 -5.223519,10.37545 -11.649199,26.73673 -2.19482,5.58852 -2.80796,7.04658 -2.60696,6.19938 z m 24.779299,-38.98552 c 9.10228,-1.43562 16.57245,-7.35405 19.87657,-15.74773 1.16795,-2.96701 1.6838,-5.74427 1.6838,-9.06526 0,-2.87294 -0.38475,-5.29195 -1.2593,-7.9174 -0.56373,-1.69237 -1.93791,-4.48028 -2.93494,-5.95435 -8.13621,-12.02905 -24.69601,-14.83189 -36.368219,-6.15551 -3.19582,2.37556 -5.70098,5.3923 -7.50589,9.03866 -1.77384,3.58359 -2.55917,6.95565 -2.55917,10.9886 0,5.61358 1.68729,10.60104 5.13459,15.17732 1.02411,1.35951 3.46428,3.7692 4.87764,4.81672 3.51337,2.60395 7.84644,4.36556 11.949699,4.85815 0.54399,0.0653 1.13743,0.13885 1.31875,0.16342 0.72153,0.0978 4.7836,-0.0445 5.78647,-0.20262 z m -7.5448,28.87195 c -2.66339,-0.20658 -5.077889,-0.54536 -7.598769,-1.0662 -2.15426,-0.44509 -3.33586,-0.77667 -3.33586,-0.9361 0,-0.20354 1.21802,-3.24717 1.36033,-3.39923 0.0959,-0.10252 0.35463,-0.0727 1.16727,0.13447 3.69971,0.94329 8.049229,1.46601 12.198439,1.46601 4.1492,0 8.49872,-0.52272 12.19843,-1.46601 0.81264,-0.20719 1.07133,-0.23699 1.16728,-0.13447 0.1423,0.15206 1.36033,3.19569 1.36033,3.39923 0,0.29243 -4.47483,1.26479 -7.76733,1.6878 -3.03896,0.39044 -7.9272,0.53345 -10.75012,0.3145 z M 86.904871,204.5868 c -1.64323,-0.65318 -4.93631,-2.2368 -6.57011,-3.15951 -4.35751,-2.46097 -9.28327,-6.31132 -12.58826,-9.83993 -1.66929,-1.78224 -3.05622,-3.43511 -3.00645,-3.58294 0.0452,-0.13412 3.03674,-2.02033 3.20343,-2.01978 0.0628,2e-4 0.55933,0.52172 1.10331,1.15892 4.93516,5.78084 11.80123,10.70755 19.0944,13.70108 1.05055,0.4312 1.29073,0.571 1.28831,0.74987 -0.002,0.12093 -0.19016,0.95417 -0.41894,1.85165 -0.27915,1.09508 -0.46794,1.64081 -0.57398,1.65923 -0.0869,0.0151 -0.77618,-0.21827 -1.53171,-0.51859 z m 39.182619,0.42146 c -0.13322,-0.37628 -0.82898,-3.25961 -0.82898,-3.43541 0,-0.15034 0.31183,-0.32653 1.29127,-0.72962 7.32665,-3.01526 14.1562,-7.91527 19.0944,-13.69967 0.54399,-0.6372 1.04048,-1.15872 1.10331,-1.15892 0.1637,-5.4e-4 3.15786,1.88443 3.20212,2.01587 0.05,0.14837 -1.00588,1.42003 -2.711,3.26516 -3.30653,3.57804 -7.77107,7.15181 -12.18438,9.75333 -1.70182,1.00317 -4.99268,2.63409 -6.82854,3.38414 -1.77183,0.7239 -2.06661,0.80732 -2.1382,0.60512 z M 61.270451,183.29151 c -4.00499,-6.2921 -6.73099,-13.66144 -7.77746,-21.02522 -0.2119,-1.49107 -0.43167,-3.85166 -0.43387,-4.66028 l -0.002,-0.79796 1.23633,0.0773 c 0.67998,0.0425 1.55777,0.10782 1.95065,0.14516 l 0.71432,0.0679 0.026,0.38079 c 0.57807,8.47283 2.91627,15.96154 7.16668,22.95321 0.55039,0.90536 0.97035,1.69475 0.93324,1.75419 -0.0963,0.15432 -2.82983,2.38331 -2.92274,2.38331 -0.0425,0 -0.44343,-0.57527 -0.89096,-1.27838 z m 89.792859,0.14077 c -0.76395,-0.62569 -1.42152,-1.1897 -1.46127,-1.25337 -0.0397,-0.0637 0.27504,-0.67402 0.69951,-1.35635 3.2515,-5.2267 5.53119,-11.10444 6.6539,-17.15579 0.25951,-1.39878 0.68602,-4.8306 0.74871,-6.02439 l 0.0286,-0.54399 0.71433,-0.0679 c 0.39287,-0.0373 1.27067,-0.10267 1.95065,-0.14516 l 1.23633,-0.0773 -2.5e-4,0.74356 c -2.9e-4,0.87279 -0.25591,3.48738 -0.50196,5.13431 -1.07681,7.20737 -3.78814,14.45361 -7.71002,20.60559 -0.44823,0.70311 -0.84974,1.27838 -0.89223,1.27838 -0.0425,0 -0.70231,-0.51193 -1.46626,-1.13761 z M 53.059121,151.80176 c 0.002,-0.9237 0.23705,-3.31713 0.49377,-5.03919 0.96634,-6.48189 3.27857,-13.09026 6.56672,-18.76766 0.87759,-1.51525 1.94919,-3.15514 2.06176,-3.15514 0.1003,0 2.7982,2.21579 2.90372,2.38482 0.0366,0.0586 -0.38945,0.85566 -0.94675,1.77122 -4.23192,6.95237 -6.57651,14.46867 -7.15411,22.93467 l -0.026,0.38079 -0.76927,0.0665 c -0.4231,0.0366 -1.30089,0.10106 -1.95065,0.14327 l -1.18138,0.0768 z m 106.267089,0.6538 c -0.75553,-0.053 -1.43551,-0.11786 -1.51106,-0.14412 -0.0848,-0.0295 -0.13737,-0.25289 -0.13737,-0.58352 0,-0.76197 -0.29349,-3.42492 -0.55027,-4.99283 -1.0253,-6.26051 -3.26132,-12.29305 -6.57524,-17.73928 -0.5571,-0.91556 -0.98297,-1.71261 -0.94638,-1.77122 0.10552,-0.16903 2.80342,-2.38482 2.90371,-2.38482 0.11258,0 1.18418,1.63989 2.06176,3.15514 3.32806,5.7463 5.70501,12.61581 6.62567,19.14846 0.20431,1.44976 0.4365,3.95129 0.43675,4.70551 l 2.5e-4,0.73439 -0.46706,-0.0157 c -0.25688,-0.009 -1.08522,-0.059 -1.84076,-0.11205 z M 66.306671,122.46714 c -0.84219,-0.52629 -1.54878,-1.00891 -1.57018,-1.07249 -0.086,-0.25549 3.24138,-3.9426 5.16959,-5.72843 4.13921,-3.83357 8.34692,-6.73659 13.26233,-9.15008 2.41514,-1.18584 5.07765,-2.2957 5.30243,-2.2103 0.12539,0.0476 0.96945,3.17081 0.96397,3.5668 -0.002,0.11171 -0.40077,0.32779 -1.18372,0.64069 -4.79303,1.9155 -9.68318,4.88674 -13.8194,8.39664 -1.6369,1.38904 -4.20307,3.94137 -5.43754,5.40821 -0.51249,0.60897 -0.9823,1.10691 -1.04401,1.10653 -0.0617,-3.7e-4 -0.80127,-0.43128 -1.64347,-0.95757 z m 79.390159,-0.1508 c -1.95903,-2.33166 -5.29752,-5.43326 -8.08522,-7.51152 -3.28418,-2.44838 -7.51475,-4.83097 -11.17172,-6.29172 -0.96673,-0.38616 -1.18084,-0.51241 -1.17841,-0.69486 0.002,-0.12262 0.19016,-0.95726 0.41894,-1.85474 0.29083,-1.14089 0.46612,-1.64134 0.58268,-1.66357 0.25241,-0.0481 3.34844,1.26002 5.46487,2.30904 4.84353,2.40071 8.77661,5.12784 12.99462,9.01023 1.99098,1.83256 5.32156,5.50916 5.2319,5.77545 -0.045,0.13367 -3.04543,2.02904 -3.21365,2.03006 -0.0617,3.8e-4 -0.53152,-0.49839 -1.04401,-1.10837 z M 93.970001,106.42816 c -0.13569,-0.17215 -1.35055,-3.25871 -1.35055,-3.4313 0,-0.12701 0.10919,-0.16271 1.70338,-0.55682 8.690589,-2.14845 18.230869,-2.03533 27.336589,0.32413 0.22666,0.0587 0.41211,0.16344 0.41211,0.23269 0,0.19771 -1.22413,3.27756 -1.36099,3.42421 -0.0952,0.10195 -0.40553,0.0605 -1.38641,-0.185 -6.62889,-1.65933 -14.18371,-1.86844 -21.209889,-0.58707 -1.23207,0.22469 -3.09938,0.64375 -3.85831,0.86587 -0.0972,0.0285 -0.22591,-0.0106 -0.28593,-0.0867 z"
       id="path1-1"
       transform="translate(6.2500001e-7)" /><path
       style="fill:#ffcc00;fill-opacity:1"
       d="m 86.616419,219.34657 c 0.03399,-0.14325 0.727247,-2.78186 1.540576,-5.86356 5.066382,-19.19653 6.53636,-25.91505 6.55812,-29.97386 0.008,-1.49572 -0.02125,-1.81575 -0.2079,-2.27342 -0.570022,-1.3977 -1.777825,-1.30838 -3.92031,0.2899 -1.109306,0.82754 -3.621884,3.23577 -5.493261,5.26512 -0.79294,0.85988 -1.462546,1.54278 -1.488014,1.51757 -0.02547,-0.0252 0.460446,-0.94398 1.079809,-2.04171 1.4303,-2.535 2.831613,-5.39932 3.291822,-6.72859 0.443982,-1.28239 0.553927,-2.4998 0.274134,-3.03546 -0.849763,-1.62684 -4.636615,-0.28658 -13.028339,4.61108 -3.541565,2.06696 -9.276896,5.62097 -17.63828,10.92989 -2.478151,1.57346 -4.622757,2.93333 -4.765792,3.02193 -0.82343,0.51007 0.324997,-0.47343 4.546,-3.89315 12.821359,-10.38747 17.208007,-14.13529 20.828165,-17.79494 0.998903,-1.0098 2.075255,-2.17871 2.391893,-2.59759 1.670658,-2.21007 1.658663,-3.43482 -0.03842,-3.92324 -0.538059,-0.15486 -0.949743,-0.17526 -2.516377,-0.12471 -2.036689,0.0657 -3.601544,0.27655 -7.009688,0.94441 -1.216901,0.23847 -2.235833,0.41052 -2.264293,0.38235 -0.02846,-0.0282 0.289867,-0.20414 0.707394,-0.39104 7.220851,-3.23218 10.045338,-5.0843 10.045338,-6.58712 0,-0.40379 -0.06195,-0.53459 -0.422014,-0.89106 -1.876303,-1.85756 -9.679427,-2.85362 -32.491786,-4.14754 -3.203463,-0.1817 -6.09647,-0.36338 -6.428905,-0.40373 l -0.604427,-0.0734 0.439583,-0.0871 c 0.241771,-0.0479 2.714427,-0.21333 5.494791,-0.36763 23.447303,-1.30123 31.620447,-2.32236 33.568474,-4.19397 0.38498,-0.36988 0.444284,-0.49005 0.444284,-0.90025 0,-1.51673 -2.732923,-3.30871 -10.045338,-6.58673 -0.417527,-0.18717 -0.735867,-0.36335 -0.70742,-0.39151 0.02845,-0.0282 0.93877,0.12231 2.022942,0.33439 3.539586,0.6924 5.270018,0.92932 7.251065,0.99278 1.565792,0.0502 1.978607,0.0296 2.516377,-0.12515 3.23783,-0.93186 0.536503,-4.55308 -10.158979,-13.61848 -2.958008,-2.50718 -6.13965,-5.12387 -12.198437,-10.03239 -3.052357,-2.47287 -5.568518,-4.54825 -5.59147,-4.61197 -0.05336,-0.14814 -0.565039,-0.46356 5.481574,3.37914 20.985117,13.33632 27.309863,16.69949 29.613156,15.74672 0.842144,-0.34835 0.945851,-1.63041 0.286719,-3.5445 -0.452351,-1.31362 -1.847884,-4.16404 -3.294231,-6.72859 -0.619094,-1.09773 -1.105098,-2.01619 -1.080008,-2.04103 0.02509,-0.0248 0.720409,0.68295 1.545151,1.57287 2.013763,2.17289 4.207671,4.26727 5.407352,5.16202 2.20204,1.64234 3.376549,1.74256 3.949769,0.33702 0.186654,-0.45767 0.215919,-0.7777 0.2079,-2.27342 -0.02188,-4.0819 -1.444095,-10.57962 -6.569943,-30.016399 -0.806535,-3.058309 -1.494354,-5.677774 -1.528488,-5.821031 -0.203019,-0.852066 0.423634,0.6403 2.71729,6.471187 6.65323,16.913713 9.521873,23.444043 11.797483,26.856393 0.59112,0.8864 1.59523,1.97349 2.02716,2.19468 0.45959,0.23536 1.0607,0.19006 1.4579,-0.10987 1.14251,-0.86274 2.08995,-4.51967 2.81433,-10.86276 0.0735,-0.64327 0.16904,-1.16958 0.2124,-1.16958 0.0434,0 0.13714,0.52631 0.2084,1.16958 0.52782,4.7649 1.23174,8.12451 2.05128,9.79021 0.4564,0.92764 0.91948,1.33439 1.51916,1.33439 0.56689,0 0.92481,-0.2118 1.62722,-0.9629 2.41043,-2.57754 5.29351,-8.88947 12.89747,-28.236418 2.28393,-5.811064 2.92838,-7.344502 2.72119,-6.474912 -0.0341,0.143257 -0.72815,2.781862 -1.54225,5.863566 -5.04591,19.100804 -6.53437,25.905824 -6.55618,29.973864 -0.008,1.49572 0.0212,1.81575 0.2079,2.27342 0.57322,1.40554 1.74773,1.30532 3.94977,-0.33702 1.20676,-0.90004 3.41695,-3.01169 5.40938,-5.1682 0.82124,-0.88888 1.51519,-1.59434 1.54211,-1.56768 0.0269,0.0267 -0.45185,0.93223 -1.06394,2.0124 -1.44584,2.55149 -2.87021,5.45759 -3.31243,6.75821 -0.43743,1.2865 -0.54554,2.50617 -0.26907,3.03546 0.34786,0.66597 1.26615,0.82676 2.65061,0.46411 3.64946,-0.95594 10.21004,-4.69907 27.52147,-15.70235 6.02454,-3.82924 5.53529,-3.52769 5.48158,-3.37858 -0.0229,0.0637 -2.53928,2.13906 -5.59183,4.61186 -11.48971,9.30755 -16.25796,13.36635 -19.67267,16.74565 -2.76438,2.73572 -3.94678,4.40345 -3.95216,5.57441 -0.003,0.68417 0.36558,1.07127 1.26777,1.33092 0.53777,0.15478 0.95059,0.17531 2.51638,0.12515 1.98105,-0.0635 3.71148,-0.30038 7.25106,-0.99278 1.08418,-0.21208 1.9945,-0.36255 2.02295,-0.33439 0.0284,0.0282 -0.2899,0.20434 -0.70742,0.39151 -7.3122,3.27792 -10.04534,5.07001 -10.04534,6.58661 0,2.48341 7.6724,3.63256 34.01276,5.09434 2.78036,0.1543 5.25302,0.31973 5.49479,0.36763 l 0.43958,0.0871 -0.60443,0.0734 c -0.33243,0.0403 -3.22544,0.22203 -6.4289,0.40373 -20.55696,1.16599 -28.51769,2.05801 -31.56595,3.53705 -0.95658,0.46414 -1.34785,0.9109 -1.34785,1.53902 0,1.46617 2.85213,3.32567 10.04534,6.54925 0.41752,0.18712 0.73585,0.36326 0.70739,0.39144 -0.0285,0.0282 -1.04739,-0.14388 -2.26429,-0.38235 -3.40815,-0.66786 -4.973,-0.87869 -7.00969,-0.94441 -1.56663,-0.0505 -1.97832,-0.0301 -2.51638,0.12471 -2.5213,0.72564 -1.37447,3.09933 3.8973,8.06656 3.63549,3.42547 8.27673,7.33907 19.0096,16.0293 2.75014,2.22675 5.01758,4.09699 5.03874,4.15608 0.0477,0.13315 -0.63361,-0.28082 -4.04968,-2.46065 -13.70771,-8.74703 -20.406,-12.77705 -24.78151,-14.90977 -4.18407,-2.03941 -6.20941,-2.40297 -6.82466,-1.22509 -0.27319,0.52302 -0.16027,1.75336 0.27765,3.02505 0.45235,1.31361 1.84788,4.16404 3.29423,6.72859 0.6191,1.09773 1.10479,2.0165 1.07932,2.04171 -0.0255,0.0252 -0.69507,-0.65769 -1.48801,-1.51757 -3.55478,-3.85486 -6.26401,-6.13248 -7.72294,-6.49258 -0.64194,-0.15844 -1.20705,0.0485 -1.51899,0.55635 -1.12284,1.82792 -0.0846,8.37358 3.61524,22.79175 0.9389,3.6589 3.29984,12.6521 3.73916,14.24306 0.33097,1.19859 0.43459,1.72568 0.31623,1.60849 -0.0579,-0.0573 -1.20944,-2.91508 -2.55904,-6.35063 -6.43121,-16.37132 -9.36745,-23.11014 -11.64976,-26.73673 -0.68308,-1.08543 -1.77722,-2.32629 -2.27669,-2.582 -0.46729,-0.23923 -1.06648,-0.19601 -1.46608,0.10573 -1.14802,0.86689 -2.12782,4.64582 -2.81649,10.86276 -0.0713,0.64327 -0.16545,1.16958 -0.20932,1.16958 -0.0439,0 -0.13806,-0.52631 -0.20932,-1.16958 -0.68088,-6.14658 -1.67593,-10.0015 -2.80092,-10.85099 -0.41538,-0.31367 -1.00685,-0.36057 -1.48166,-0.1175 -0.49872,0.25533 -1.59296,1.49568 -2.27784,2.582 -2.275477,3.60923 -5.22352,10.37545 -11.649203,26.73673 -2.19482,5.58852 -2.807961,7.04658 -2.606965,6.19938 z m 24.779301,-38.98552 c 9.10228,-1.43562 16.57245,-7.35405 19.87657,-15.74773 1.16795,-2.96701 1.6838,-5.74427 1.6838,-9.06526 0,-2.87294 -0.38475,-5.29195 -1.2593,-7.9174 -0.56373,-1.69237 -1.93791,-4.48028 -2.93494,-5.95435 -8.13621,-12.02905 -24.69601,-14.83189 -36.368223,-6.15551 -3.195821,2.37556 -5.700983,5.3923 -7.505893,9.03866 -1.773841,3.58359 -2.559172,6.95565 -2.559172,10.9886 0,5.61358 1.68729,10.60104 5.134592,15.17732 1.02411,1.35951 3.464281,3.7692 4.877646,4.81672 3.513364,2.60395 7.84643,4.36556 11.9497,4.85815 0.54399,0.0653 1.13743,0.13885 1.31875,0.16342 0.72153,0.0978 4.7836,-0.0445 5.78647,-0.20262 z m -7.5448,28.87195 c -2.66339,-0.20658 -5.07789,-0.54536 -7.598773,-1.0662 -2.154266,-0.44509 -3.335863,-0.77667 -3.335863,-0.9361 0,-0.20354 1.218024,-3.24717 1.360333,-3.39923 0.09594,-0.10252 0.35463,-0.0727 1.167271,0.13447 3.699709,0.94329 8.049232,1.46601 12.198442,1.46601 4.1492,0 8.49872,-0.52272 12.19843,-1.46601 0.81264,-0.20719 1.07133,-0.23699 1.16728,-0.13447 0.1423,0.15206 1.36033,3.19569 1.36033,3.39923 0,0.29243 -4.47483,1.26479 -7.76733,1.6878 -3.03896,0.39044 -7.9272,0.53345 -10.75012,0.3145 z m -16.649219,-3.80297 c -1.643227,-0.65318 -4.936308,-2.2368 -6.570106,-3.15951 -4.357507,-2.46097 -9.283274,-6.31132 -12.588262,-9.83993 -1.66929,-1.78224 -3.056219,-3.43511 -3.006447,-3.58294 0.04516,-0.13412 3.03674,-2.02033 3.203431,-2.01978 0.06284,2e-4 0.559328,0.52172 1.103312,1.15892 4.935153,5.78084 11.801227,10.70755 19.0944,13.70108 1.050544,0.4312 1.290722,0.571 1.288302,0.74987 -0.0016,0.12093 -0.190157,0.95417 -0.418937,1.85165 -0.279151,1.09508 -0.467935,1.64081 -0.573979,1.65923 -0.08691,0.0151 -0.77618,-0.21827 -1.531714,-0.51859 z m 39.182629,0.42146 c -0.13322,-0.37628 -0.82898,-3.25961 -0.82898,-3.43541 0,-0.15034 0.31183,-0.32653 1.29127,-0.72962 7.32665,-3.01526 14.1562,-7.91527 19.0944,-13.69967 0.54399,-0.6372 1.04048,-1.15872 1.10331,-1.15892 0.1637,-5.4e-4 3.15786,1.88443 3.20212,2.01587 0.05,0.14837 -1.00588,1.42003 -2.711,3.26516 -3.30653,3.57804 -7.77107,7.15181 -12.18438,9.75333 -1.70182,1.00317 -4.99268,2.63409 -6.82854,3.38414 -1.77183,0.7239 -2.06661,0.80732 -2.1382,0.60512 z M 61.56728,184.13474 c -4.004984,-6.2921 -6.730984,-13.66144 -7.777457,-21.02522 -0.211898,-1.49107 -0.431665,-3.85166 -0.433865,-4.66028 l -0.0022,-0.79796 1.236328,0.0773 c 0.67998,0.0425 1.557773,0.10782 1.950651,0.14516 l 0.714322,0.0679 0.02598,0.38079 c 0.578066,8.47283 2.916263,15.96154 7.166677,22.95321 0.55039,0.90536 0.970346,1.69475 0.933235,1.75419 -0.09634,0.15432 -2.829828,2.38331 -2.922737,2.38331 -0.0425,0 -0.443428,-0.57527 -0.890963,-1.27838 z m 89.79287,0.14077 c -0.76395,-0.62569 -1.42152,-1.1897 -1.46127,-1.25337 -0.0397,-0.0637 0.27504,-0.67402 0.69951,-1.35635 3.2515,-5.2267 5.53119,-11.10444 6.6539,-17.15579 0.25951,-1.39878 0.68602,-4.8306 0.74871,-6.02439 l 0.0286,-0.54399 0.71433,-0.0679 c 0.39287,-0.0373 1.27067,-0.10267 1.95065,-0.14516 l 1.23633,-0.0773 -2.5e-4,0.74356 c -2.9e-4,0.87279 -0.25591,3.48738 -0.50196,5.13431 -1.07681,7.20737 -3.78814,14.45361 -7.71002,20.60559 -0.44823,0.70311 -0.84974,1.27838 -0.89223,1.27838 -0.0425,0 -0.70231,-0.51193 -1.46626,-1.13761 z M 53.355958,152.64499 c 0.0025,-0.9237 0.237042,-3.31713 0.49377,-5.03919 0.966332,-6.48189 3.27857,-13.09026 6.566719,-18.76766 0.877583,-1.51525 1.949186,-3.15514 2.061763,-3.15514 0.100291,0 2.798191,2.21579 2.903715,2.38482 0.03659,0.0586 -0.389446,0.85566 -0.946748,1.77122 -4.231917,6.95237 -6.576509,14.46867 -7.154109,22.93467 l -0.02598,0.38079 -0.76927,0.0665 c -0.423099,0.0366 -1.300892,0.10106 -1.950651,0.14327 l -1.18138,0.0768 z m 106.267092,0.6538 c -0.75553,-0.053 -1.43551,-0.11786 -1.51106,-0.14412 -0.0848,-0.0295 -0.13737,-0.25289 -0.13737,-0.58352 0,-0.76197 -0.29349,-3.42492 -0.55027,-4.99283 -1.0253,-6.26051 -3.26132,-12.29305 -6.57524,-17.73928 -0.5571,-0.91556 -0.98297,-1.71261 -0.94638,-1.77122 0.10552,-0.16903 2.80342,-2.38482 2.90371,-2.38482 0.11258,0 1.18418,1.63989 2.06176,3.15514 3.32806,5.7463 5.70501,12.61581 6.62567,19.14846 0.20431,1.44976 0.4365,3.95129 0.43675,4.70551 l 2.5e-4,0.73439 -0.46706,-0.0157 c -0.25688,-0.009 -1.08522,-0.059 -1.84076,-0.11205 z M 66.603509,123.31037 c -0.842197,-0.52629 -1.548781,-1.00891 -1.570188,-1.07249 -0.08602,-0.25549 3.241389,-3.9426 5.169594,-5.72843 4.139215,-3.83357 8.346924,-6.73659 13.262328,-9.15008 2.415146,-1.18584 5.077648,-2.2957 5.302434,-2.2103 0.125383,0.0476 0.969451,3.17081 0.963964,3.5668 -0.0015,0.11171 -0.400763,0.32779 -1.183716,0.64069 -4.793032,1.9155 -9.683178,4.88674 -13.8194,8.39664 -1.6369,1.38904 -4.203073,3.94137 -5.437538,5.40821 -0.512496,0.60897 -0.9823,1.10691 -1.044011,1.10653 -0.06171,-3.7e-4 -0.801271,-0.43128 -1.643467,-0.95757 z m 79.390161,-0.1508 c -1.95903,-2.33166 -5.29752,-5.43326 -8.08522,-7.51152 -3.28418,-2.44838 -7.51475,-4.83097 -11.17172,-6.29172 -0.96673,-0.38616 -1.18084,-0.51241 -1.17841,-0.69486 0.002,-0.12262 0.19016,-0.95726 0.41894,-1.85474 0.29083,-1.14089 0.46612,-1.64134 0.58268,-1.66357 0.25241,-0.0481 3.34844,1.26002 5.46487,2.30904 4.84353,2.40071 8.77661,5.12784 12.99462,9.01023 1.99098,1.83256 5.32156,5.50916 5.2319,5.77545 -0.045,0.13367 -3.04543,2.02904 -3.21365,2.03006 -0.0617,3.8e-4 -0.53152,-0.49839 -1.04401,-1.10837 z M 94.266832,107.27139 c -0.135688,-0.17215 -1.350548,-3.25871 -1.350548,-3.4313 0,-0.12701 0.109192,-0.16271 1.703385,-0.55682 8.690591,-2.14845 18.230871,-2.03533 27.336591,0.32413 0.22666,0.0587 0.41211,0.16344 0.41211,0.23269 0,0.19771 -1.22413,3.27756 -1.36099,3.42421 -0.0952,0.10195 -0.40553,0.0605 -1.38641,-0.185 -6.62889,-1.65933 -14.18371,-1.86844 -21.209895,-0.58707 -1.232066,0.22469 -3.099376,0.64375 -3.858312,0.86587 -0.09724,0.0285 -0.22591,-0.0106 -0.285931,-0.0867 z"
       id="path1" /></g></svg>
