<?xml version="1.0" encoding="UTF-8" standalone="no"?>
<!-- Created with Inkscape (http://www.inkscape.org/) -->

<svg
   width="210mm"
   height="297mm"
   viewBox="0 0 210 297"
   version="1.1"
   id="svg1"
   xml:space="preserve"
   inkscape:export-filename="suciedad.png"
   inkscape:export-xdpi="96"
   inkscape:export-ydpi="96"
   inkscape:version="1.3.2 (091e20e, 2023-11-25, custom)"
   sodipodi:docname="dibujo.svg"
   xmlns:inkscape="http://www.inkscape.org/namespaces/inkscape"
   xmlns:sodipodi="http://sodipodi.sourceforge.net/DTD/sodipodi-0.dtd"
   xmlns="http://www.w3.org/2000/svg"
   xmlns:svg="http://www.w3.org/2000/svg"><sodipodi:namedview
     id="namedview1"
     pagecolor="#505050"
     bordercolor="#eeeeee"
     borderopacity="1"
     inkscape:showpageshadow="0"
     inkscape:pageopacity="0"
     inkscape:pagecheckerboard="0"
     inkscape:deskcolor="#505050"
     inkscape:document-units="mm"
     showguides="true"
     inkscape:zoom="0.4894542"
     inkscape:cx="424.96316"
     inkscape:cy="497.49293"
     inkscape:window-width="1920"
     inkscape:window-height="991"
     inkscape:window-x="-9"
     inkscape:window-y="-9"
     inkscape:window-maximized="1"
     inkscape:current-layer="layer1"><sodipodi:guide
       position="150.98455,220.55213"
       orientation="0,-1"
       id="guide1"
       inkscape:locked="false" /></sodipodi:namedview><defs
     id="defs1" /><g
     inkscape:label="Capa 1"
     inkscape:groupmode="layer"
     id="layer1"><path
       d="m 95.033172,78.239408 c 0.24586,5.255166 -0.34636,11.15815 -1.71307,15.721521 -4.09963,13.688351 -14.359724,24.759261 -27.94403,30.152161 -2.719754,1.07973 -8.421628,2.4506 -11.512476,2.76779 -10.812126,1.10953 -21.181153,-1.39567 -29.762524,-7.19026 -2.091958,-1.4126 -4.047426,-3.03084 -5.889563,-4.76922 v 3.64164 c 6.307484,5.49699 12.686377,8.54207 21.739758,10.50272 2.306213,0.49947 3.518808,0.57999 8.888347,0.59169 7.095808,0.0154 9.395193,-0.32619 15.213541,-2.26187 7.804286,-2.5964 14.034646,-6.50112 19.969327,-12.51449 1.37886,-1.39713 2.58655,-2.53989 2.68355,-2.53989 0.16208,0 10.44686,6.48151 10.87065,6.85074 0.10237,0.0892 -0.2135,1.2333 -0.70228,2.54248 -1.20686,3.23255 -1.58002,5.80955 -1.38958,9.60303 0.16504,3.2876 0.76718,5.92063 1.96577,8.60051 0.58951,1.31806 0.63353,1.58637 0.31316,1.89549 -0.20528,0.19806 -4.20809,2.9006 -8.89558,6.00532 -4.68749,3.10473 -12.65749,8.38358 -17.710541,11.73055 -5.05305,3.34698 -9.288248,6.12617 -9.411828,6.17637 -0.123581,0.0502 -0.765123,-0.40701 -1.425753,-1.01596 -3.311976,-3.05287 -7.856791,-3.41219 -11.655619,-0.92191 -1.604994,1.05215 -2.454049,2.09493 -3.415296,4.19458 -0.643504,1.40559 -0.692539,1.75285 -0.597379,4.22196 0.09089,2.35827 0.197821,2.86296 0.868164,4.08606 0.888441,1.62105 2.747359,3.44963 4.406449,4.33462 1.006633,0.53696 1.533781,0.62012 3.940328,0.62012 2.547329,0 2.905361,-0.0646 4.307747,-0.77515 1.873347,-0.94922 3.712372,-2.86452 4.588868,-4.77904 0.839159,-1.83296 1.080154,-4.56093 0.552421,-6.25336 l -0.381889,-1.22422 7.306531,-4.8457 c 4.018555,-2.66509 12.303047,-8.17119 18.409727,-12.23543 l 11.10319,-7.38921 0.401528,0.62684 c 1.47847,2.30905 5.47515,5.66745 8.37933,7.04091 l 1.58544,0.74983 -3.67213,11.23497 c -3.66759,11.21976 -7.811438,23.94028 -11.609628,35.61126 h 2.89233 c 1.61663,-4.99322 3.002018,-9.33259 4.292758,-13.2643 1.43318,-4.36562 4.4271,-13.51205 6.65283,-20.3259 4.03829,-12.3628 4.04783,-12.38876 4.71496,-12.23336 0.36768,0.0856 1.83111,0.29711 3.25148,0.46974 2.9466,0.35814 6.57029,0.0337 9.078,-0.81287 l 1.45055,-0.48989 2.60966,5.18676 c 1.43535,2.85277 6.18872,12.32519 10.56318,21.04988 l 7.95352,15.86311 -1.31465,1.39062 c -1.0016,1.05905 -1.61666,2.0418 -2.01228,3.16621 h 2.90525 c 0.33571,-0.61155 0.75114,-1.16558 1.29346,-1.57923 1.12307,-0.85661 2.34815,-1.324 3.55483,-1.45779 2.51658,-0.27903 4.92322,0.91599 6.1743,3.03702 h 2.94659 c -0.3965,-1.12124 -0.78102,-1.7628 -1.96784,-2.94866 -2.19401,-2.19219 -3.92868,-2.87049 -6.94945,-2.71766 l -2.14302,0.10852 -10.55698,-21.15375 c -6.63779,-13.30021 -10.4397,-21.19581 -10.24072,-21.26691 0.17405,-0.0622 1.06703,-0.59684 1.98438,-1.18805 2.10127,-1.35424 5.01966,-4.30945 6.54533,-6.62802 1.09496,-1.66401 1.2102,-1.76002 1.7198,-1.43092 0.55218,0.35663 8.22288,4.85349 12.84934,7.53288 1.38245,0.80064 3.52558,2.04193 4.7625,2.75849 1.23693,0.71656 3.83127,2.20825 5.76502,3.31452 l 3.51607,2.01125 -0.20878,0.8108 c -0.11473,0.44587 -0.20388,1.70327 -0.19688,2.79466 0.0141,2.32127 0.58367,3.65698 2.24947,5.27358 1.60928,1.56175 2.7138,2.00298 5.01468,2.00298 0.0719,0 0.10507,-0.0122 0.17777,-0.0129 v -2.53059 c -1.5801,-0.0265 -3.10351,-0.77329 -4.05453,-2.14561 -0.64365,-0.92879 -0.75344,-1.34292 -0.75344,-2.8484 0,-1.47914 0.11698,-1.93835 0.72812,-2.86184 0.91552,-1.38345 2.26232,-2.07005 4.07985,-2.14044 v -2.89181 c -1.57523,-0.0175 -3.15366,0.46852 -4.61419,1.52652 l -1.08365,0.78496 -2.2009,-1.27072 c -4.13649,-2.38835 -15.68893,-9.07834 -19.96829,-11.56364 -2.35048,-1.36507 -4.58509,-2.60019 -4.96611,-2.74505 -0.67155,-0.25532 -0.68141,-0.29062 -0.32091,-1.15342 0.92664,-2.21775 1.27338,-4.74497 1.18288,-8.61601 l -0.0889,-3.80855 1.32292,-0.37465 c 0.72761,-0.20612 4.06137,-1.18625 7.40833,-2.17765 3.34698,-0.99141 8.03602,-2.37459 10.42004,-3.07371 l 4.33462,-1.27124 0.55914,0.77463 c 1.99647,2.76613 5.10935,3.84863 8.01501,3.22926 v -2.80758 c -1.99529,0.68271 -3.93254,0.21118 -5.41879,-1.48157 -1.3808,-1.57264 -1.70033,-3.51915 -0.87178,-5.30872 0.99222,-2.1431 3.03638,-3.35867 5.11441,-3.2613 0.39379,0.0184 0.78689,0.0975 1.17616,0.21291 v -2.83859 c -0.0173,-0.004 -0.0284,-0.0121 -0.0455,-0.0155 -4.62008,-0.93024 -9.17242,2.73126 -9.23872,7.43055 l -0.0217,1.52808 -1.85208,0.53795 c -1.01865,0.29599 -2.56646,0.76184 -3.43959,1.03508 -0.87312,0.27323 -3.90922,1.17072 -6.74687,1.99419 -2.83766,0.82347 -6.4592,1.90247 -8.04757,2.39779 -3.18054,0.99182 -3.5922,1.05726 -3.5972,0.56999 -0.007,-0.70415 -1.81451,-4.43057 -3.02256,-6.23115 -1.56075,-2.32626 -5.15901,-5.82516 -7.14013,-6.94324 -0.92382,-0.52137 -1.40659,-0.94724 -1.29036,-1.13843 0.10215,-0.16801 3.11219,-4.71074 6.68848,-10.094985 3.5763,-5.384262 7.43328,-11.218341 8.57106,-12.964588 2.24906,-3.451812 3.23929,-4.893011 4.96558,-7.511169 h -3.26595 c -2.56757,3.893054 -5.62686,8.507 -6.87348,10.421586 -0.94751,1.455205 -4.12502,6.263221 -7.06158,10.684621 -2.93657,4.421385 -5.42966,8.199695 -5.53972,8.396375 -0.16383,0.29273 -0.5584,0.25146 -2.17609,-0.22737 -2.67986,-0.79324 -9.19813,-0.85182 -12.03027,-0.10801 -4.92075,1.29236 -9.26922,4.27597 -13.267408,9.10332 l -0.49093,0.59325 -3.96875,-2.55075 c -2.1828,-1.40279 -4.65197,-2.96367 -5.487,-3.46852 -0.9561,-0.57805 -1.44599,-1.02959 -1.32292,-1.21956 0.10748,-0.16591 0.88998,-1.34714 1.73891,-2.62517 2.93292,-4.41535 5.55629,-10.715495 6.63371,-15.932353 0.85338,-4.132088 1.14208,-8.634283 0.90795,-13.067419 z m 23.888458,31.327802 c 1.9196,-0.005 3.85018,0.15276 5.05964,0.4749 4.04287,1.0768 8.20931,3.6843 10.68772,6.689 1.66735,2.02141 3.67059,5.84656 4.28295,8.1778 0.6698,2.54995 0.78903,7.04008 0.25683,9.66659 -1.54974,7.64822 -7.889,14.23955 -15.38769,15.99954 -1.86766,0.43831 -5.69647,0.70669 -7.11585,0.49868 -3.96756,-0.58146 -7.37594,-1.99604 -10.45414,-4.33927 -6.736148,-5.12779 -9.689978,-13.97361 -7.404198,-22.17384 1.916468,-6.87531 7.674598,-12.40931 15.080218,-14.49318 1.16629,-0.32819 3.07493,-0.49534 4.99452,-0.50022 z m 0.308,6.26525 c -3.66235,-0.0806 -7.40195,1.29812 -10.64845,4.14858 -1.36918,1.20216 -2.82413,3.50026 -3.60495,5.69423 -0.9012,2.53227 -0.94309,6.88101 -0.0889,9.24026 1.66845,4.60815 5.35651,8.12072 9.9658,9.49141 1.2206,0.363 2.26016,0.45025 4.49792,0.37775 2.4911,-0.0807 3.17866,-0.20609 4.77128,-0.87074 5.84334,-2.43859 9.03017,-6.77226 9.31881,-12.6721 0.22728,-4.64561 -0.87169,-7.59365 -4.02714,-10.80244 -2.9369,-2.98653 -6.52205,-4.52636 -10.18439,-4.60695 z m 0.33951,2.7652 c 5.68556,0.37778 10.75957,5.03213 11.19725,10.80916 0.38587,5.09308 -2.06856,9.30502 -6.73912,11.5657 -2.02447,0.9799 -2.44983,1.08702 -4.64313,1.16582 -1.48563,0.0534 -2.88327,-0.049 -3.63337,-0.26613 -3.27817,-0.94908 -6.09581,-3.31115 -7.63106,-6.39754 -0.80699,-1.62233 -0.92524,-2.12883 -1.02164,-4.37803 -0.0801,-1.8689 0.01,-2.95651 0.33899,-4.10104 1.21694,-4.23387 5.1113,-7.5718 9.6697,-8.28838 0.82544,-0.12976 1.65016,-0.16353 2.46238,-0.10956 z m -66.158229,46.44575 c 2.062716,-0.15543 3.667022,0.34336 5.066357,1.57509 3.88629,3.42086 2.942436,9.47212 -1.814876,11.63289 -1.562294,0.70958 -3.914932,0.6538 -5.57382,-0.13178 -2.605027,-1.23362 -3.904772,-3.31158 -3.910872,-6.25336 -0.0079,-3.83447 2.462468,-6.53869 6.233211,-6.82284 z"
       id="path76"
       style="fill:#00ff00" /></g></svg>
