<?xml version="1.0" standalone="no"?>
<!DOCTYPE svg PUBLIC "-//W3C//DTD SVG 20010904//EN"
 "http://www.w3.org/TR/2001/REC-SVG-20010904/DTD/svg10.dtd">
<svg version="1.0" xmlns="http://www.w3.org/2000/svg"
 width="1080.000000pt" height="1080.000000pt" viewBox="0 0 1080.000000 1080.000000"
 preserveAspectRatio="xMidYMid meet">

<g transform="translate(0.000000,1080.000000) scale(0.100000,-0.100000)"
fill="#000000" stroke="none">
<path d="M5085 10493 c-740 -62 -1341 -226 -1955 -533 -150 -75 -177 -90 -395
-223 -493 -302 -911 -673 -1315 -1168 -197 -242 -415 -586 -578 -914 -191
-384 -350 -855 -430 -1275 -6 -30 -16 -80 -22 -110 -5 -30 -15 -91 -20 -135
-6 -44 -15 -111 -20 -150 -18 -122 -29 -593 -20 -843 12 -316 41 -541 116
-877 63 -279 204 -703 304 -912 22 -46 48 -102 57 -125 9 -24 31 -68 48 -99
18 -30 44 -82 60 -114 15 -33 38 -75 50 -95 12 -19 42 -69 66 -110 105 -181
263 -410 398 -580 42 -52 78 -97 81 -100 3 -3 34 -39 69 -80 83 -96 424 -436
476 -475 22 -16 65 -52 96 -80 108 -98 437 -336 597 -432 641 -384 1219 -594
1941 -704 323 -49 823 -63 1166 -34 664 56 1318 243 1888 539 401 209 711 417
1048 706 35 30 135 125 222 210 366 358 624 700 911 1210 36 64 51 94 149 300
125 264 282 736 341 1025 88 431 106 590 112 980 6 361 -21 758 -65 955 -5 25
-15 79 -21 120 -6 41 -18 98 -25 125 -8 28 -30 118 -51 200 -33 133 -110 378
-159 505 -34 88 -97 243 -105 259 -4 9 -27 59 -50 111 -22 52 -61 130 -86 172
-24 43 -44 81 -44 84 0 11 -85 156 -179 304 -370 587 -888 1119 -1461 1500
-346 231 -789 459 -1086 559 -32 11 -95 33 -139 49 -166 62 -499 146 -755 191
-110 20 -300 42 -515 61 -93 9 -611 11 -700 3z"/>
</g>
</svg>
